<svg width="23" height="21" viewBox="0 0 23 21" fill="none" xmlns="http://www.w3.org/2000/svg">
<path d="M19 14.9999C18.3793 15.0031 17.7748 15.1987 17.27 15.5599L14.82 14.1099C14.9356 13.7511 14.9963 13.3768 15 12.9999C14.9971 12.1153 14.7011 11.2567 14.1583 10.5582C13.6155 9.85981 12.8565 9.36102 12 9.13988V6.81988C12.6672 6.58399 13.2296 6.11981 13.5876 5.5094C13.9457 4.89899 14.0765 4.18164 13.9568 3.48415C13.8371 2.78665 13.4747 2.15392 12.9337 1.69778C12.3926 1.24163 11.7077 0.991455 11 0.991455C10.2923 0.991455 9.60741 1.24163 9.06634 1.69778C8.52527 2.15392 8.16288 2.78665 8.04321 3.48415C7.92353 4.18164 8.05429 4.89899 8.41237 5.5094C8.77045 6.11981 9.33279 6.58399 10 6.81988V9.13988C9.14353 9.36102 8.38451 9.85981 7.84169 10.5582C7.29887 11.2567 7.00287 12.1153 7 12.9999C7.00372 13.3768 7.0644 13.7511 7.18 14.1099L4.73 15.5599C4.22516 15.1987 3.62072 15.0031 3 14.9999C2.40666 14.9999 1.82664 15.1758 1.33329 15.5055C0.839943 15.8351 0.455426 16.3037 0.228363 16.8518C0.00129986 17.4 -0.0581102 18.0032 0.0576455 18.5852C0.173401 19.1671 0.459123 19.7016 0.878681 20.1212C1.29824 20.5408 1.83279 20.8265 2.41473 20.9422C2.99667 21.058 3.59987 20.9986 4.14805 20.7715C4.69623 20.5445 5.16477 20.1599 5.49441 19.6666C5.82405 19.1732 6 18.5932 6 17.9999C5.9963 17.729 5.95594 17.4599 5.88 17.1999L8.18 15.8299C8.92945 16.5749 9.94326 16.9931 11 16.9931C12.0567 16.9931 13.0706 16.5749 13.82 15.8299L16.12 17.1999C15.9524 17.8055 15.9793 18.4484 16.1967 19.038C16.4141 19.6275 16.8112 20.1339 17.3318 20.4857C17.8525 20.8374 18.4705 21.0169 19.0986 20.9986C19.7267 20.9803 20.3332 20.7653 20.8325 20.3839C21.3318 20.0024 21.6988 19.4738 21.8816 18.8727C22.0644 18.2715 22.0538 17.6281 21.8514 17.0332C21.6489 16.4384 21.2648 15.9221 20.7532 15.5573C20.2416 15.1925 19.6284 14.9975 19 14.9999ZM3 18.9999C2.80222 18.9999 2.60888 18.9412 2.44443 18.8314C2.27998 18.7215 2.15181 18.5653 2.07612 18.3826C2.00043 18.1998 1.98063 17.9988 2.01922 17.8048C2.0578 17.6108 2.15304 17.4326 2.29289 17.2928C2.43275 17.1529 2.61093 17.0577 2.80491 17.0191C2.99889 16.9805 3.19996 17.0003 3.38268 17.076C3.56541 17.1517 3.72159 17.2799 3.83147 17.4443C3.94135 17.6088 4 17.8021 4 17.9999C4 18.2651 3.89464 18.5195 3.70711 18.707C3.51957 18.8945 3.26522 18.9999 3 18.9999ZM11 2.99988C11.1978 2.99988 11.3911 3.05853 11.5556 3.16841C11.72 3.27829 11.8482 3.43447 11.9239 3.6172C11.9996 3.79993 12.0194 4.00099 11.9808 4.19497C11.9422 4.38895 11.847 4.56714 11.7071 4.70699C11.5673 4.84684 11.3891 4.94208 11.1951 4.98067C11.0011 5.01925 10.8 4.99945 10.6173 4.92376C10.4346 4.84807 10.2784 4.7199 10.1685 4.55545C10.0587 4.391 10 4.19766 10 3.99988C10 3.73467 10.1054 3.48031 10.2929 3.29278C10.4804 3.10524 10.7348 2.99988 11 2.99988ZM11 14.9999C10.6044 14.9999 10.2178 14.8826 9.88886 14.6628C9.55996 14.4431 9.30362 14.1307 9.15224 13.7652C9.00087 13.3998 8.96126 12.9977 9.03843 12.6097C9.1156 12.2217 9.30608 11.8654 9.58579 11.5857C9.86549 11.306 10.2219 11.1155 10.6098 11.0383C10.9978 10.9611 11.3999 11.0007 11.7654 11.1521C12.1308 11.3035 12.4432 11.5598 12.6629 11.8887C12.8827 12.2176 13 12.6043 13 12.9999C13 13.5303 12.7893 14.039 12.4142 14.4141C12.0391 14.7892 11.5304 14.9999 11 14.9999ZM19 18.9999C18.8022 18.9999 18.6089 18.9412 18.4444 18.8314C18.28 18.7215 18.1518 18.5653 18.0761 18.3826C18.0004 18.1998 17.9806 17.9988 18.0192 17.8048C18.0578 17.6108 18.153 17.4326 18.2929 17.2928C18.4327 17.1529 18.6109 17.0577 18.8049 17.0191C18.9989 16.9805 19.2 17.0003 19.3827 17.076C19.5654 17.1517 19.7216 17.2799 19.8315 17.4443C19.9414 17.6088 20 17.8021 20 17.9999C20 18.2651 19.8946 18.5195 19.7071 18.707C19.5196 18.8945 19.2652 18.9999 19 18.9999Z" fill="black"/>
</svg>
