<svg width="239" height="49" viewBox="0 0 239 49" fill="none" xmlns="http://www.w3.org/2000/svg">
<path d="M77.7727 18.5263C78.9923 19.2626 80.0243 20.2751 80.681 21.6556C81.4315 23.0362 81.8068 24.6929 81.8068 26.5336C81.8068 28.3744 81.4315 29.9391 80.5872 31.3196C79.8366 32.7002 78.7109 33.7126 77.3036 34.3569C75.8964 35.0932 74.2077 35.4613 72.4252 35.4613C71.3932 35.4613 70.455 35.2773 69.5169 34.9091C68.5787 34.633 67.7344 34.0808 67.0777 33.4365V43.0085H61.6364V17.79H66.3272L66.7962 19.8149C68.8602 18.1582 71.1118 17.3298 73.4572 17.3298C75.052 17.3298 76.5531 17.698 77.7727 18.5263ZM74.7706 29.9391C75.7087 29.1107 76.1778 28.0063 76.1778 26.6257C76.1778 25.2451 75.7087 24.1407 74.8644 23.2203C74.0201 22.2999 72.8943 21.9317 71.6747 21.9317C70.6427 21.9317 69.7045 22.1158 68.954 22.576C68.2035 22.9442 67.6406 23.5884 67.1715 24.4168V28.5585C67.4529 29.3868 68.0158 30.0311 68.6725 30.4913C69.4231 30.9515 70.2674 31.2276 71.2994 31.2276C72.7066 31.2276 73.8324 30.7674 74.7706 29.9391Z" fill="#111111"/>
<path d="M84.9962 21.746C85.8406 20.4574 86.9664 19.353 88.4674 18.6167C89.9685 17.8804 91.6571 17.4202 93.5335 17.4202C95.4098 17.4202 97.0985 17.7883 98.5995 18.6167C100.007 19.353 101.133 20.4574 101.977 21.838C102.821 23.2186 103.197 24.6912 103.197 26.4399C103.197 28.1886 102.821 29.6612 101.977 31.0418C101.133 32.4224 100.101 33.5268 98.5995 34.2631C97.1923 34.9994 95.4098 35.4596 93.5335 35.4596C91.6571 35.4596 89.9685 35.0915 88.4674 34.3552C86.9664 33.6189 85.8406 32.6065 84.9962 31.2259C84.2457 29.8453 83.7766 28.2807 83.7766 26.4399C83.7766 24.6912 84.2457 23.1265 84.9962 21.746ZM90.5314 29.7533C91.2819 30.6736 92.3139 31.0418 93.5335 31.0418C94.7531 31.0418 95.785 30.5816 96.5356 29.7533C97.2861 28.9249 97.6614 27.7284 97.6614 26.4399C97.6614 25.0593 97.2861 23.9549 96.5356 23.1265C95.6912 22.2061 94.7531 21.746 93.4396 21.746C92.22 21.746 91.2819 22.2061 90.4375 23.0345C89.687 23.9549 89.3118 25.0593 89.3118 26.4399C89.3118 27.7284 89.687 28.8329 90.5314 29.7533Z" fill="#111111"/>
<path d="M112.015 4.71948V35H106.574V4.71948H112.015Z" fill="#111111"/>
<path d="M134.343 18.2483L123.272 43.0986H118.019L122.147 34.1709L114.266 18.2483H120.458L124.961 28.1884L129.464 18.2483H134.343Z" fill="#111111"/>
<path d="M38.3707 17.9736C37.4326 17.4214 36.213 17.4214 35.181 17.9736L27.8633 22.2073L22.8911 24.9685L15.5734 29.2022C14.6353 29.7545 13.4157 29.7545 12.3837 29.2022L6.56712 25.8889C5.62896 25.3366 4.97225 24.3242 4.97225 23.2198V16.685C4.97225 15.5806 5.53514 14.5682 6.56712 14.0159L12.2899 10.7946C13.228 10.2424 14.4477 10.2424 15.4796 10.7946L21.2024 14.0159C22.1406 14.5682 22.7973 15.5806 22.7973 16.685V20.9188L27.7695 18.0656V13.8319C27.7695 12.7274 27.2066 11.715 26.1747 11.1628L15.5734 5.08824C14.6353 4.53602 13.4157 4.53602 12.3837 5.08824L1.59487 11.1628C0.562896 11.715 0 12.7274 0 13.8319V26.0729C0 27.1774 0.562896 28.1898 1.59487 28.742L12.3837 34.8166C13.3219 35.3688 14.5415 35.3688 15.5734 34.8166L22.8911 30.6748L27.8633 27.8217L35.181 23.6799C36.1191 23.1277 37.3388 23.1277 38.3707 23.6799L44.0935 26.9013C45.0317 27.4535 45.6884 28.4659 45.6884 29.5704V36.1051C45.6884 37.2095 45.1255 38.222 44.0935 38.7742L38.3707 42.0876C37.4326 42.6398 36.213 42.6398 35.181 42.0876L29.4582 38.8662C28.5201 38.314 27.8633 37.3016 27.8633 36.1971V31.9634L22.8911 34.8166V39.0503C22.8911 40.1548 23.454 41.1672 24.486 41.7194L35.2748 47.7939C36.213 48.3462 37.4326 48.3462 38.4645 47.7939L49.2534 41.7194C50.1915 41.1672 50.8482 40.1548 50.8482 39.0503V26.8092C50.8482 25.7048 50.2854 24.6924 49.2534 24.1401L38.3707 17.9736Z" fill="#8248E5"/>
<path d="M146.531 35H141.82L135.545 11.0059H141.012L144.439 27.8105H144.668L148.799 11.0059H153.141L157.254 27.8105H157.5L160.91 11.0059H166.359L160.084 35H155.373L151.066 19.0215H150.855L146.531 35ZM172.864 35.2812C171.024 35.2812 169.536 34.7715 168.399 33.752C167.274 32.7207 166.712 31.3262 166.712 29.5684C166.712 27.8457 167.292 26.4805 168.452 25.4727C169.612 24.4648 171.253 23.9609 173.374 23.9609H177.874V22.3438C177.874 21.5234 177.61 20.9023 177.083 20.4805C176.567 20.0469 175.852 19.8301 174.938 19.8301C173.262 19.8301 172.301 20.4746 172.055 21.7637H167.397C167.444 20.9668 167.62 20.2344 167.925 19.5664C168.229 18.8984 168.675 18.2949 169.26 17.7559C169.858 17.2051 170.643 16.7773 171.616 16.4727C172.6 16.1562 173.737 15.998 175.026 15.998C176.139 15.998 177.147 16.1152 178.05 16.3496C178.952 16.584 179.76 16.9473 180.475 17.4395C181.202 17.9316 181.764 18.6113 182.163 19.4785C182.561 20.334 182.76 21.3418 182.76 22.502V35H178.102V32.6621H177.874C177.475 33.4238 176.86 34.0508 176.028 34.543C175.196 35.0352 174.141 35.2812 172.864 35.2812ZM174.516 31.5898C175.442 31.5898 176.233 31.3262 176.889 30.7988C177.546 30.2715 177.874 29.6035 177.874 28.7949V26.9141H174.516C173.567 26.9141 172.846 27.125 172.354 27.5469C171.862 27.957 171.616 28.5078 171.616 29.1992C171.616 29.9609 171.897 30.5527 172.46 30.9746C173.022 31.3848 173.708 31.5898 174.516 31.5898ZM187.419 35V9.42383H192.376V35H187.419ZM197.281 35V9.42383H202.238V35H197.281ZM214.808 35.334C212.147 35.334 210.038 34.584 208.479 33.084C206.933 31.5723 206.159 29.416 206.159 26.6152V24.6289C206.159 23.2344 206.376 21.9805 206.809 20.8672C207.243 19.7539 207.841 18.8457 208.602 18.1426C209.376 17.4277 210.266 16.8828 211.274 16.5078C212.282 16.1328 213.378 15.9453 214.561 15.9453C217.058 15.9453 219.073 16.7305 220.608 18.3008C222.143 19.8594 222.911 21.9688 222.911 24.6289V26.7383H211.011V27.6172C211.011 28.7656 211.356 29.6914 212.048 30.3945C212.739 31.0977 213.653 31.4492 214.79 31.4492C215.692 31.4492 216.448 31.2617 217.058 30.8867C217.679 30.5 218.036 30.0137 218.13 29.4277H222.753C222.718 29.9434 222.595 30.4648 222.384 30.9922C222.184 31.5078 221.874 32.0293 221.452 32.5566C221.03 33.084 220.52 33.5527 219.923 33.9629C219.337 34.373 218.599 34.707 217.708 34.9648C216.817 35.2109 215.85 35.334 214.808 35.334ZM211.011 23.75H218.147V23.5918C218.147 22.4316 217.819 21.5 217.163 20.7969C216.518 20.082 215.663 19.7246 214.597 19.7246C213.518 19.7246 212.651 20.082 211.995 20.7969C211.339 21.5 211.011 22.4316 211.011 23.5918V23.75ZM228.132 16.5254V11.8848H232.931V16.5254H237.062V20.4277H232.931V28.8828C232.931 29.7383 233.136 30.3359 233.546 30.6758C233.957 31.0156 234.636 31.1855 235.586 31.1855C236.218 31.1855 236.757 31.1621 237.203 31.1152V34.877C236.464 35.0176 235.521 35.0879 234.373 35.0879C232.041 35.0879 230.4 34.6777 229.451 33.8574C228.502 33.0254 228.027 31.6367 228.027 29.6914V20.4277H225.179V16.5254H228.132Z" fill="#A29D94"/>
</svg>
