<svg width="20" height="20" viewBox="0 0 20 20" fill="none" xmlns="http://www.w3.org/2000/svg">
<path d="M17 12H19C19.2652 12 19.5196 11.8946 19.7071 11.7071C19.8946 11.5196 20 11.2652 20 11C20 10.7348 19.8946 10.4804 19.7071 10.2929C19.5196 10.1054 19.2652 10 19 10H17V9C16.9912 8.53931 16.9205 8.0819 16.79 7.64C17.73 7.27962 18.5393 6.64391 19.112 5.81603C19.6847 4.98815 19.9942 4.00667 20 3C20 2.73478 19.8946 2.48043 19.7071 2.29289C19.5196 2.10536 19.2652 2 19 2C18.7348 2 18.4804 2.10536 18.2929 2.29289C18.1054 2.48043 18 2.73478 18 3C17.9991 3.64484 17.7905 4.27224 17.405 4.7892C17.0196 5.30615 16.4778 5.68514 15.86 5.87C15.3668 5.23797 14.7289 4.7338 14 4.4C14.0104 4.26687 14.0104 4.13313 14 4C14 2.93913 13.5786 1.92172 12.8284 1.17157C12.0783 0.421427 11.0609 0 10 0C8.93913 0 7.92172 0.421427 7.17157 1.17157C6.42143 1.92172 6 2.93913 6 4C5.98965 4.13313 5.98965 4.26687 6 4.4C5.25662 4.72831 4.60446 5.23288 4.1 5.87C3.48968 5.67807 2.9567 5.29604 2.5789 4.77971C2.2011 4.26338 1.99826 3.63979 2 3C2 2.73478 1.89464 2.48043 1.70711 2.29289C1.51957 2.10536 1.26522 2 1 2C0.734784 2 0.48043 2.10536 0.292893 2.29289C0.105357 2.48043 0 2.73478 0 3C0.00576615 4.00667 0.315265 4.98815 0.888 5.81603C1.46074 6.64391 2.27003 7.27962 3.21 7.64C3.07948 8.0819 3.00885 8.53931 3 9V10H1C0.734784 10 0.48043 10.1054 0.292893 10.2929C0.105357 10.4804 0 10.7348 0 11C0 11.2652 0.105357 11.5196 0.292893 11.7071C0.48043 11.8946 0.734784 12 1 12H3V13C3.00086 13.4635 3.04776 13.9258 3.14 14.38C2.21628 14.7502 1.42404 15.3876 0.864657 16.2106C0.305279 17.0336 0.00421571 18.0049 0 19C0 19.2652 0.105357 19.5196 0.292893 19.7071C0.48043 19.8946 0.734784 20 1 20C1.26522 20 1.51957 19.8946 1.70711 19.7071C1.89464 19.5196 2 19.2652 2 19C2.0027 18.4168 2.17535 17.847 2.49681 17.3604C2.81828 16.8737 3.27462 16.4913 3.81 16.26C4.40471 17.3862 5.29541 18.3289 6.38616 18.9864C7.47692 19.6439 8.72639 19.9914 10 19.9914C11.2736 19.9914 12.5231 19.6439 13.6138 18.9864C14.7046 18.3289 15.5953 17.3862 16.19 16.26C16.7254 16.4913 17.1817 16.8737 17.5032 17.3604C17.8247 17.847 17.9973 18.4168 18 19C18 19.2652 18.1054 19.5196 18.2929 19.7071C18.4804 19.8946 18.7348 20 19 20C19.2652 20 19.5196 19.8946 19.7071 19.7071C19.8946 19.5196 20 19.2652 20 19C19.9958 18.0049 19.6947 17.0336 19.1353 16.2106C18.576 15.3876 17.7837 14.7502 16.86 14.38C16.9522 13.9258 16.9991 13.4635 17 13V12ZM9 17.9C7.87064 17.6695 6.8556 17.0558 6.12669 16.1629C5.39778 15.27 4.99976 14.1527 5 13V9C5 8.20435 5.31607 7.44129 5.87868 6.87868C6.44129 6.31607 7.20435 6 8 6H9V17.9ZM8 4C8 3.46957 8.21071 2.96086 8.58579 2.58579C8.96086 2.21071 9.46957 2 10 2C10.5304 2 11.0391 2.21071 11.4142 2.58579C11.7893 2.96086 12 3.46957 12 4H8ZM15 13C15.0002 14.1527 14.6022 15.27 13.8733 16.1629C13.1444 17.0558 12.1294 17.6695 11 17.9V6H12C12.7956 6 13.5587 6.31607 14.1213 6.87868C14.6839 7.44129 15 8.20435 15 9V13Z" fill="black"/>
</svg>
