<svg width="18" height="21" viewBox="0 0 18 21" fill="none" xmlns="http://www.w3.org/2000/svg">
<path d="M18 7.19C17.9896 7.09813 17.9695 7.00763 17.94 6.92V6.83C17.8919 6.72718 17.8278 6.63267 17.75 6.55L11.75 0.55C11.6673 0.472216 11.5728 0.408081 11.47 0.36C11.4402 0.35576 11.4099 0.35576 11.38 0.36C11.2784 0.301741 11.1662 0.264344 11.05 0.25H7C6.20435 0.25 5.44129 0.566071 4.87868 1.12868C4.31607 1.69129 4 2.45435 4 3.25V4.25H3C2.20435 4.25 1.44129 4.56607 0.87868 5.12868C0.316071 5.69129 0 6.45435 0 7.25V17.25C0 18.0456 0.316071 18.8087 0.87868 19.3713C1.44129 19.9339 2.20435 20.25 3 20.25H11C11.7956 20.25 12.5587 19.9339 13.1213 19.3713C13.6839 18.8087 14 18.0456 14 17.25V16.25H15C15.7956 16.25 16.5587 15.9339 17.1213 15.3713C17.6839 14.8087 18 14.0456 18 13.25V7.25V7.19ZM12 3.66L14.59 6.25H13C12.7348 6.25 12.4804 6.14464 12.2929 5.95711C12.1054 5.76957 12 5.51522 12 5.25V3.66ZM12 17.25C12 17.5152 11.8946 17.7696 11.7071 17.9571C11.5196 18.1446 11.2652 18.25 11 18.25H3C2.73478 18.25 2.48043 18.1446 2.29289 17.9571C2.10536 17.7696 2 17.5152 2 17.25V7.25C2 6.98478 2.10536 6.73043 2.29289 6.54289C2.48043 6.35536 2.73478 6.25 3 6.25H4V13.25C4 14.0456 4.31607 14.8087 4.87868 15.3713C5.44129 15.9339 6.20435 16.25 7 16.25H12V17.25ZM16 13.25C16 13.5152 15.8946 13.7696 15.7071 13.9571C15.5196 14.1446 15.2652 14.25 15 14.25H7C6.73478 14.25 6.48043 14.1446 6.29289 13.9571C6.10536 13.7696 6 13.5152 6 13.25V3.25C6 2.98478 6.10536 2.73043 6.29289 2.54289C6.48043 2.35536 6.73478 2.25 7 2.25H10V5.25C10 6.04565 10.3161 6.80871 10.8787 7.37132C11.4413 7.93393 12.2044 8.25 13 8.25H16V13.25Z" fill="black"/>
</svg>
