<svg width="16" height="21" viewBox="0 0 16 21" fill="none" xmlns="http://www.w3.org/2000/svg">
<path d="M8 11.2461C7.69555 11.2425 7.39732 11.3323 7.14544 11.5034C6.89357 11.6745 6.70015 11.9186 6.59121 12.2029C6.48228 12.4872 6.46306 12.7981 6.53615 13.0937C6.60923 13.3892 6.77111 13.6553 7 13.8561V15.2461C7 15.5113 7.10536 15.7657 7.29289 15.9532C7.48043 16.1407 7.73478 16.2461 8 16.2461C8.26522 16.2461 8.51957 16.1407 8.70711 15.9532C8.89464 15.7657 9 15.5113 9 15.2461V13.8561C9.22889 13.6553 9.39077 13.3892 9.46385 13.0937C9.53694 12.7981 9.51772 12.4872 9.40879 12.2029C9.29985 11.9186 9.10643 11.6745 8.85456 11.5034C8.60268 11.3323 8.30445 11.2425 8 11.2461ZM13 7.24609V5.24609C13 3.92001 12.4732 2.64824 11.5355 1.71056C10.5979 0.772878 9.32608 0.246094 8 0.246094C6.67392 0.246094 5.40215 0.772878 4.46447 1.71056C3.52678 2.64824 3 3.92001 3 5.24609V7.24609C2.20435 7.24609 1.44129 7.56216 0.87868 8.12477C0.316071 8.68738 0 9.45044 0 10.2461V17.2461C0 18.0417 0.316071 18.8048 0.87868 19.3674C1.44129 19.93 2.20435 20.2461 3 20.2461H13C13.7956 20.2461 14.5587 19.93 15.1213 19.3674C15.6839 18.8048 16 18.0417 16 17.2461V10.2461C16 9.45044 15.6839 8.68738 15.1213 8.12477C14.5587 7.56216 13.7956 7.24609 13 7.24609ZM5 5.24609C5 4.45044 5.31607 3.68738 5.87868 3.12477C6.44129 2.56216 7.20435 2.24609 8 2.24609C8.79565 2.24609 9.55871 2.56216 10.1213 3.12477C10.6839 3.68738 11 4.45044 11 5.24609V7.24609H5V5.24609ZM14 17.2461C14 17.5113 13.8946 17.7657 13.7071 17.9532C13.5196 18.1407 13.2652 18.2461 13 18.2461H3C2.73478 18.2461 2.48043 18.1407 2.29289 17.9532C2.10536 17.7657 2 17.5113 2 17.2461V10.2461C2 9.98088 2.10536 9.72652 2.29289 9.53899C2.48043 9.35145 2.73478 9.24609 3 9.24609H13C13.2652 9.24609 13.5196 9.35145 13.7071 9.53899C13.8946 9.72652 14 9.98088 14 10.2461V17.2461Z" fill="white"/>
</svg>
