<svg width="21" height="21" viewBox="0 0 21 21" fill="none" xmlns="http://www.w3.org/2000/svg">
<path d="M18.3989 10.6614C18.2386 10.4789 18.1502 10.2443 18.1502 10.0014C18.1502 9.75845 18.2386 9.52385 18.3989 9.34136L19.6789 7.90136C19.82 7.74403 19.9076 7.54606 19.9291 7.33587C19.9507 7.12567 19.9051 6.91405 19.7989 6.73136L17.7989 3.27136C17.6938 3.08888 17.5338 2.94424 17.3417 2.85805C17.1495 2.77186 16.9351 2.74852 16.7289 2.79136L14.8489 3.17136C14.6097 3.22079 14.3607 3.18095 14.1488 3.05936C13.9369 2.93777 13.7769 2.74284 13.6989 2.51136L13.0889 0.68136C13.0218 0.482739 12.894 0.310225 12.7235 0.188202C12.5531 0.0661789 12.3486 0.000818796 12.1389 0.00135996H8.13892C7.92085 -0.0100221 7.70505 0.0502863 7.52448 0.173074C7.34391 0.295862 7.2085 0.474379 7.13892 0.68136L6.57892 2.51136C6.50092 2.74284 6.34089 2.93777 6.12903 3.05936C5.91717 3.18095 5.66814 3.22079 5.42892 3.17136L3.49892 2.79136C3.30347 2.76374 3.10422 2.79458 2.92627 2.88C2.74831 2.96542 2.59962 3.10159 2.49892 3.27136L0.49892 6.73136C0.39008 6.91201 0.341142 7.12245 0.359102 7.33258C0.377063 7.54272 0.461002 7.7418 0.59892 7.90136L1.86892 9.34136C2.02924 9.52385 2.11765 9.75845 2.11765 10.0014C2.11765 10.2443 2.02924 10.4789 1.86892 10.6614L0.59892 12.1014C0.461002 12.2609 0.377063 12.46 0.359102 12.6701C0.341142 12.8803 0.39008 13.0907 0.49892 13.2714L2.49892 16.7314C2.60402 16.9138 2.76404 17.0585 2.95617 17.1447C3.1483 17.2309 3.36274 17.2542 3.56892 17.2114L5.44892 16.8314C5.68814 16.7819 5.93717 16.8218 6.14903 16.9434C6.36089 17.0649 6.52092 17.2599 6.59892 17.4914L7.20892 19.3214C7.2785 19.5283 7.41392 19.7069 7.59449 19.8296C7.77506 19.9524 7.99085 20.0127 8.20892 20.0014H12.2089C12.4186 20.0019 12.6231 19.9365 12.7935 19.8145C12.964 19.6925 13.0918 19.52 13.1589 19.3214L13.7689 17.4914C13.8469 17.2599 14.0069 17.0649 14.2188 16.9434C14.4307 16.8218 14.6797 16.7819 14.9189 16.8314L16.7989 17.2114C17.0051 17.2542 17.2195 17.2309 17.4117 17.1447C17.6038 17.0585 17.7638 16.9138 17.8689 16.7314L19.8689 13.2714C19.9751 13.0887 20.0207 12.877 19.9991 12.6669C19.9776 12.4567 19.89 12.2587 19.7489 12.1014L18.3989 10.6614ZM16.9089 12.0014L17.7089 12.9014L16.4289 15.1214L15.2489 14.8814C14.5287 14.7341 13.7795 14.8565 13.1435 15.2252C12.5075 15.5938 12.0291 16.1832 11.7989 16.8814L11.4189 18.0014H8.85892L8.49892 16.8614C8.26877 16.1632 7.7903 15.5738 7.15432 15.2052C6.51835 14.8365 5.76914 14.7141 5.04892 14.8614L3.86892 15.1014L2.56892 12.8914L3.36892 11.9914C3.86087 11.4413 4.13285 10.7293 4.13285 9.99136C4.13285 9.25343 3.86087 8.54138 3.36892 7.99136L2.56892 7.09136L3.84892 4.89136L5.02892 5.13136C5.74914 5.27858 6.49835 5.15624 7.13432 4.78756C7.7703 4.41888 8.24877 3.82952 8.47892 3.13136L8.85892 2.00136H11.4189L11.7989 3.14136C12.0291 3.83952 12.5075 4.42888 13.1435 4.79756C13.7795 5.16624 14.5287 5.28858 15.2489 5.14136L16.4289 4.90136L17.7089 7.12136L16.9089 8.02136C16.4225 8.57012 16.1539 9.27804 16.1539 10.0114C16.1539 10.7447 16.4225 11.4526 16.9089 12.0014ZM10.1389 6.00136C9.34779 6.00136 8.57444 6.23596 7.91664 6.67548C7.25884 7.11501 6.74615 7.73972 6.4434 8.47063C6.14065 9.20153 6.06144 10.0058 6.21578 10.7817C6.37012 11.5576 6.75108 12.2704 7.31049 12.8298C7.8699 13.3892 8.58263 13.7702 9.35856 13.9245C10.1345 14.0788 10.9387 13.9996 11.6697 13.6969C12.4006 13.3941 13.0253 12.8814 13.4648 12.2236C13.9043 11.5658 14.1389 10.7925 14.1389 10.0014C14.1389 8.94049 13.7175 7.92308 12.9673 7.17293C12.2172 6.42279 11.1998 6.00136 10.1389 6.00136ZM10.1389 12.0014C9.74336 12.0014 9.35668 11.8841 9.02778 11.6643C8.69888 11.4445 8.44254 11.1322 8.29116 10.7667C8.13979 10.4013 8.10018 9.99914 8.17735 9.61118C8.25452 9.22322 8.445 8.86685 8.72471 8.58715C9.00441 8.30744 9.36078 8.11696 9.74874 8.03979C10.1367 7.96262 10.5388 8.00223 10.9043 8.1536C11.2697 8.30498 11.5821 8.56132 11.8019 8.89022C12.0216 9.21912 12.1389 9.6058 12.1389 10.0014C12.1389 10.5318 11.9282 11.0405 11.5531 11.4156C11.1781 11.7906 10.6694 12.0014 10.1389 12.0014Z" fill="#26241E"/>
</svg>
