<svg width="17" height="18" viewBox="0 0 17 18" fill="none" xmlns="http://www.w3.org/2000/svg">
<path d="M3.49615 6.94141C4.0895 6.94141 4.66952 6.76546 5.16286 6.43582C5.65621 6.10617 6.04073 5.63764 6.26779 5.08946C6.49485 4.54128 6.55426 3.93808 6.43851 3.35614C6.32275 2.7742 6.03703 2.23965 5.61747 1.82009C5.19792 1.40053 4.66337 1.11481 4.08142 0.999054C3.49948 0.883298 2.89628 0.942708 2.3481 1.16977C1.79992 1.39683 1.33139 1.78135 1.00174 2.2747C0.6721 2.76805 0.496153 3.34807 0.496153 3.94141C0.497022 4.73679 0.813371 5.49935 1.37579 6.06177C1.93821 6.62419 2.70077 6.94054 3.49615 6.94141ZM3.49615 2.94141C3.69393 2.94141 3.88727 3.00006 4.05172 3.10994C4.21617 3.21982 4.34434 3.376 4.42003 3.55873C4.49572 3.74145 4.51552 3.94252 4.47694 4.1365C4.43835 4.33048 4.34311 4.50866 4.20326 4.64852C4.06341 4.78837 3.88522 4.88361 3.69124 4.92219C3.49726 4.96078 3.2962 4.94098 3.11347 4.86529C2.93074 4.7896 2.77457 4.66143 2.66468 4.49698C2.5548 4.33253 2.49615 4.13919 2.49615 3.94141C2.49633 3.67625 2.60174 3.422 2.78924 3.2345C2.97674 3.047 3.23099 2.94159 3.49615 2.94141ZM13.4243 10.9855C12.831 10.9855 12.2509 11.1615 11.7576 11.4911C11.2642 11.8207 10.8797 12.2893 10.6527 12.8375C10.4256 13.3856 10.3662 13.9888 10.4819 14.5708C10.5977 15.1527 10.8834 15.6873 11.303 16.1068C11.7225 16.5264 12.2571 16.8121 12.839 16.9279C13.421 17.0436 14.0242 16.9842 14.5724 16.7571C15.1205 16.5301 15.5891 16.1456 15.9187 15.6522C16.2484 15.1589 16.4243 14.5788 16.4243 13.9855C16.4234 13.1901 16.1071 12.4276 15.5447 11.8651C14.9822 11.3027 14.2197 10.9864 13.4243 10.9855ZM13.4243 14.9855C13.2265 14.9855 13.0332 14.9269 12.8687 14.817C12.7043 14.7071 12.5761 14.5509 12.5004 14.3682C12.4247 14.1855 12.4049 13.9844 12.4435 13.7904C12.4821 13.5964 12.5773 13.4183 12.7172 13.2784C12.857 13.1385 13.0352 13.0433 13.2292 13.0047C13.4232 12.9661 13.6243 12.9859 13.807 13.0616C13.9897 13.1373 14.1459 13.2655 14.2558 13.4299C14.3657 13.5944 14.4243 13.7877 14.4243 13.9855C14.4241 14.2507 14.3187 14.5049 14.1312 14.6924C13.9437 14.8799 13.6895 14.9853 13.4243 14.9855ZM16.2075 1.29202C16.1146 1.19914 16.0044 1.12546 15.8831 1.07519C15.7618 1.02492 15.6318 0.999049 15.5004 0.999049C15.3691 0.999049 15.2391 1.02492 15.1178 1.07519C14.9965 1.12546 14.8862 1.19914 14.7934 1.29202L0.793403 15.292C0.699597 15.3847 0.625038 15.4949 0.574014 15.6165C0.522991 15.7381 0.496511 15.8685 0.496099 16.0003C0.495687 16.1322 0.52135 16.2628 0.571613 16.3847C0.621876 16.5066 0.695745 16.6173 0.78897 16.7105C0.882195 16.8037 0.992934 16.8776 1.11482 16.9279C1.2367 16.9781 1.36731 17.0038 1.49915 17.0034C1.63099 17.0029 1.76144 16.9765 1.883 16.9254C2.00456 16.8744 2.11483 16.7998 2.20746 16.706L16.2075 2.70602C16.3003 2.61319 16.374 2.50298 16.4243 2.38167C16.4745 2.26036 16.5004 2.13033 16.5004 1.99902C16.5004 1.86771 16.4745 1.73769 16.4243 1.61638C16.374 1.49507 16.3003 1.38485 16.2075 1.29202Z" fill="#26241E"/>
</svg>
