<svg width="16" height="21" viewBox="0 0 16 21" fill="none" xmlns="http://www.w3.org/2000/svg">
<path d="M15.8894 8.54931C15.8063 8.3844 15.6791 8.24571 15.522 8.14863C15.3649 8.05155 15.184 7.99987 14.9994 7.99931H9.99937V1.99931C10.0101 1.77999 9.94835 1.56324 9.82365 1.38251C9.69894 1.20178 9.51822 1.06712 9.30937 0.999311C9.1086 0.933254 8.89206 0.932512 8.69083 0.99719C8.48961 1.06187 8.31406 1.18864 8.18937 1.35931L0.189373 12.3593C0.0891389 12.5042 0.0289519 12.673 0.0149038 12.8486C0.00085566 13.0242 0.0334451 13.2004 0.109373 13.3593C0.179295 13.5411 0.300762 13.6984 0.458863 13.8121C0.616964 13.9258 0.804821 13.9909 0.999373 13.9993H5.99937V19.9993C5.99953 20.2102 6.06634 20.4156 6.19027 20.5862C6.31419 20.7569 6.48888 20.8839 6.68937 20.9493C6.78985 20.9805 6.8942 20.9973 6.99937 20.9993C7.15716 20.9997 7.3128 20.9628 7.45358 20.8915C7.59436 20.8203 7.71628 20.7167 7.80937 20.5893L15.8094 9.58931C15.9171 9.44011 15.9816 9.26406 15.9957 9.08057C16.0098 8.89707 15.973 8.71324 15.8894 8.54931ZM7.99937 16.9193V12.9993C7.99937 12.7341 7.89402 12.4797 7.70648 12.2922C7.51894 12.1047 7.26459 11.9993 6.99937 11.9993H2.99937L7.99937 5.07931V8.99931C7.99937 9.26453 8.10473 9.51888 8.29227 9.70642C8.4798 9.89395 8.73416 9.99931 8.99937 9.99931H12.9994L7.99937 16.9193Z" fill="black"/>
</svg>
