<svg width="19" height="18" viewBox="0 0 19 18" fill="none" xmlns="http://www.w3.org/2000/svg">
<path d="M15.5 4V3C15.5 2.20435 15.1839 1.44129 14.6213 0.87868C14.0587 0.316071 13.2956 0 12.5 0H3.5C2.70435 0 1.94129 0.316071 1.37868 0.87868C0.816071 1.44129 0.5 2.20435 0.5 3V15C0.5 15.7956 0.816071 16.5587 1.37868 17.1213C1.94129 17.6839 2.70435 18 3.5 18H15.5C16.2956 18 17.0587 17.6839 17.6213 17.1213C18.1839 16.5587 18.5 15.7956 18.5 15V7C18.5 6.20435 18.1839 5.44129 17.6213 4.87868C17.0587 4.31607 16.2956 4 15.5 4ZM3.5 2H12.5C12.7652 2 13.0196 2.10536 13.2071 2.29289C13.3946 2.48043 13.5 2.73478 13.5 3V4H3.5C3.23478 4 2.98043 3.89464 2.79289 3.70711C2.60536 3.51957 2.5 3.26522 2.5 3C2.5 2.73478 2.60536 2.48043 2.79289 2.29289C2.98043 2.10536 3.23478 2 3.5 2ZM16.5 12H15.5C15.2348 12 14.9804 11.8946 14.7929 11.7071C14.6054 11.5196 14.5 11.2652 14.5 11C14.5 10.7348 14.6054 10.4804 14.7929 10.2929C14.9804 10.1054 15.2348 10 15.5 10H16.5V12ZM16.5 8H15.5C14.7044 8 13.9413 8.31607 13.3787 8.87868C12.8161 9.44129 12.5 10.2044 12.5 11C12.5 11.7956 12.8161 12.5587 13.3787 13.1213C13.9413 13.6839 14.7044 14 15.5 14H16.5V15C16.5 15.2652 16.3946 15.5196 16.2071 15.7071C16.0196 15.8946 15.7652 16 15.5 16H3.5C3.23478 16 2.98043 15.8946 2.79289 15.7071C2.60536 15.5196 2.5 15.2652 2.5 15V5.83C2.82127 5.94302 3.15943 6.00051 3.5 6H15.5C15.7652 6 16.0196 6.10536 16.2071 6.29289C16.3946 6.48043 16.5 6.73478 16.5 7V8Z" fill="#26241E"/>
</svg>
